<svg xmlns="http://www.w3.org/2000/svg" viewBox="0 0 96 96" stroke-linejoin="round" stroke-linecap="round"><ellipse cx="48" cy="86" rx="40" ry="7" fill="#000" opacity=".18"/><rect x="70" y="22" width="22" height="62" fill="#bdb3a0" stroke="#3b2a1a" stroke-width="2"/><path d="M68 22 h26 v-5 h-4.4 v3 h-4.4 v-3 h-4.4 v3 h-4.4 v-3 h-4.4 v3 h-0.40000000000000036 v-3 z" fill="#bdb3a0" stroke="#3b2a1a" stroke-width="2"/><rect x="4" y="38" width="70" height="46" fill="#b0a898" stroke="#3b2a1a" stroke-width="2"/>
<path d="M4 38 h70 v-8 h-7 v4 h-7 v-4 h-7 v4 h-7 v-4 h-7 v4 h-7 v-4 h-7 v4 h-7 v-4 h-7 z" fill="#b0a898" stroke="#3b2a1a" stroke-width="2"/>
<path d="M30 84 v-8.0 a10.0 10.0 0 0 1 20 0 v8.0 z" fill="#5a3518" stroke="#3b2a1a" stroke-width="2"/><path d="M12 46 v18 l6 4 l6 -4 v-18 z" fill="#2f6fdc" stroke="#3b2a1a" stroke-width="2"/><path d="M54 46 v18 l6 4 l6 -4 v-18 z" fill="#2f6fdc" stroke="#3b2a1a" stroke-width="2"/>
<path d="M18 50 v12 M60 50 v12" stroke="#f2d98a" stroke-width="2"/>
<rect x="77" y="34" width="8" height="10" rx="4" fill="#3b2a1a"/><path d="M81 18 V6" stroke="#3b2a1a" stroke-width="2"/><path d="M81 6 l11 3 -11 4 z" fill="#f2c230" stroke="#3b2a1a" stroke-width="1.5"/><path d="M10 30 V18" stroke="#3b2a1a" stroke-width="2"/><path d="M10 18 l11 3 -11 4 z" fill="#2f6fdc" stroke="#3b2a1a" stroke-width="1.5"/><path d="M66 30 V18" stroke="#3b2a1a" stroke-width="2"/><path d="M66 18 l11 3 -11 4 z" fill="#2f6fdc" stroke="#3b2a1a" stroke-width="1.5"/>
<path d="M24 22 L56 44 M56 22 L24 44" stroke="#3b2a1a" stroke-width="3"/><path d="M20 18 l6 1 -1 6 z M60 18 l-6 1 1 6 z" fill="#9aa0a6" stroke="#3b2a1a" stroke-width="2"/></svg>
