<svg xmlns="http://www.w3.org/2000/svg" viewBox="0 0 96 96" stroke-linejoin="round" stroke-linecap="round"><ellipse cx="48" cy="86" rx="40" ry="7" fill="#000" opacity=".18"/><ellipse cx="34" cy="72" rx="30" ry="13" fill="#8a5a3a" stroke="#3b2a1a" stroke-width="2"/><ellipse cx="34" cy="74" rx="20" ry="7" fill="#6b4128"/>
<path d="M16 64 q8 -16 20 -6 q8 -12 18 0 q8 -8 12 6" fill="#c8794a" stroke="#3b2a1a" stroke-width="2"/><path d="M58 84 v-22 a16 16 0 0 1 32 0 v22 z" fill="#b5654a" stroke="#3b2a1a" stroke-width="2"/>
<path d="M66 84 v-10 a8 8 0 0 1 16 0 v10 z" fill="#f29a3a" stroke="#3b2a1a" stroke-width="2"/><rect x="78" y="36" width="8" height="14" fill="#8e3226" stroke="#3b2a1a" stroke-width="2"/>
<g fill="#d8d4cc" stroke="#9a948a" stroke-width="1.2" opacity=".9"><circle cx="82" cy="30" r="4"/><circle cx="86" cy="23" r="5"/><circle cx="83" cy="15" r="6"/></g><g stroke="#3b2a1a" stroke-width="2" fill="#c0563a"><rect x="10" y="86" width="12" height="6"/><rect x="22" y="86" width="12" height="6"/><rect x="16" y="80" width="12" height="6"/></g></svg>
