<svg xmlns="http://www.w3.org/2000/svg" viewBox="0 0 800 560" stroke-linejoin="round" stroke-linecap="round"><defs><radialGradient id="g" cx="50%" cy="55%" r="65%"><stop offset="0" stop-color="#9fcb68"/><stop offset="1" stop-color="#6f9e45"/></radialGradient></defs>
<rect width="800" height="560" fill="url(#g)"/>
<ellipse cx="400" cy="300" rx="350" ry="230" fill="#b9d98a" opacity=".55"/>
<path d="M400 560 C 390 470 420 420 400 330 C 380 260 300 250 200 260 M400 330 C 470 270 560 250 640 270 M400 330 C 400 250 380 180 400 110" fill="none" stroke="#d9c08a" stroke-width="26" stroke-linecap="round"/>
<path d="M400 560 C 390 470 420 420 400 330 C 380 260 300 250 200 260 M400 330 C 470 270 560 250 640 270 M400 330 C 400 250 380 180 400 110" fill="none" stroke="#e8d6a8" stroke-width="14" stroke-linecap="round"/>
<circle cx="400" cy="330" r="34" fill="#e8d6a8" stroke="#d9c08a" stroke-width="6"/>
<circle cx="400" cy="330" r="12" fill="#5b9bd5" stroke="#3b2a1a" stroke-width="2"/>
<g fill="#4f8a32" stroke="#3b2a1a" stroke-width="1.5">
<path d="M40 80 l14 26 h-28 z"/><path d="M70 50 l14 26 h-28 z"/><path d="M740 70 l14 26 h-28 z"/><path d="M770 110 l14 26 h-28 z"/>
<path d="M30 470 l14 26 h-28 z"/><path d="M760 480 l14 26 h-28 z"/><path d="M60 300 l14 26 h-28 z"/><path d="M750 320 l14 26 h-28 z"/></g>
<g fill="#5f9e3a" opacity=".5"><circle cx="150" cy="420" r="6"/><circle cx="650" cy="420" r="6"/><circle cx="560" cy="140" r="5"/><circle cx="230" cy="140" r="5"/><circle cx="300" cy="480" r="4"/><circle cx="520" cy="490" r="4"/></g></svg>
